<svg width="20" height="20" viewBox="0 0 20 20" fill="none" xmlns="http://www.w3.org/2000/svg">
<g id="sound icon">
<path id="Vector" d="M9.99999 19.537C15.2671 19.537 19.537 15.2671 19.537 9.99999C19.537 4.73283 15.2671 0.462952 9.99999 0.462952C4.73283 0.462952 0.462952 4.73283 0.462952 9.99999C0.462952 15.2671 4.73283 19.537 9.99999 19.537Z" fill="#6600AA" fill-opacity="0.15" stroke="#6600AA" stroke-width="0.8"/>
<g id="inner">
<g id="x">
<path id="Vector_2" d="M11.8518 8.57858L14.7685 11.4214" stroke="#6600AA" stroke-width="0.6" stroke-linecap="round"/>
<path id="Vector_3" d="M11.8055 11.4214L14.7036 8.56932" stroke="#6600AA" stroke-width="0.6" stroke-linecap="round"/>
</g>
<g id="waves">
<path id="inner wave" d="M11.3141 8.10181C11.7895 8.58037 12.0833 9.23982 12.0833 9.96794C12.0833 10.7051 11.7822 11.3719 11.2963 11.8518" stroke="#6600AA" stroke-width="0.6" stroke-linecap="round"/>
<path id="middle wave" d="M12.4251 6.94447C13.1867 7.71331 13.6574 8.77378 13.6574 9.94485C13.6574 11.125 13.1794 12.1928 12.4074 12.963" stroke="#6600AA" stroke-width="0.6" stroke-linecap="round"/>
<path id="outer wave" d="M13.5366 5.83333C14.6125 6.89245 15.2777 8.35394 15.2777 9.96796C15.2777 11.591 14.6051 13.0598 13.5185 14.1204" stroke="#6600AA" stroke-width="0.6" stroke-linecap="round"/>
</g>
<path id="spkr" fill-rule="evenodd" clip-rule="evenodd" d="M9.83737 5.91458L6.88019 8.06023H5.08797C4.91153 8.06023 4.76848 8.27009 4.76848 8.52893V11.4713C4.76848 11.7301 4.91153 11.9399 5.08797 11.9399H6.88019L9.83737 14.0855C9.87616 14.1089 9.91737 14.1204 9.95825 14.1204C10.0207 14.1204 10.0829 14.0935 10.1364 14.0409C10.2247 13.9538 10.2777 13.8079 10.2777 13.6517V6.34837C10.2777 6.19217 10.2247 6.04629 10.1364 5.95916C10.048 5.87196 9.93561 5.85548 9.83737 5.91458Z" fill="#6600AA"/>
</g>
</g>
</svg>
